<svg xmlns="http://www.w3.org/2000/svg" xmlns:svg="http://www.w3.org/2000/svg" xmlns:xlink="http://www.w3.org/1999/xlink" id="svg2" width="64" height="64" version="1.1"><defs id="defs4"><linearGradient id="linearGradient3817"><stop style="stop-opacity:1;stop-color:#d0980c" id="stop3819" offset="0"/><stop style="stop-color:#f0e464;stop-opacity:1" id="stop3821" offset="1"/></linearGradient><linearGradient id="linearGradient3809"><stop style="stop-color:#7b1418;stop-opacity:1" id="stop3811" offset="0"/><stop style="stop-color:#7b1418;stop-opacity:1" id="stop3813" offset="1"/></linearGradient><linearGradient id="linearGradient3801"><stop style="stop-color:#000;stop-opacity:1" id="stop3803" offset="0"/><stop style="stop-color:#7b1418;stop-opacity:1" id="stop3805" offset="1"/></linearGradient><linearGradient id="linearGradient3773"><stop style="stop-color:#a64543;stop-opacity:1" id="stop3783" offset="0"/><stop style="stop-color:#de5d5a;stop-opacity:1" id="stop3777" offset="1"/></linearGradient><linearGradient id="linearGradient3882-5" x1="-12.462" x2="-12.446" y1="1044.794" y2="992.292" gradientUnits="userSpaceOnUse" xlink:href="#linearGradient3817-7"/><linearGradient id="linearGradient3817-7"><stop style="stop-color:#d8ac24;stop-opacity:1" id="stop3819-1" offset="0"/><stop style="stop-color:#f0e464;stop-opacity:1" id="stop3821-8" offset="1"/></linearGradient><linearGradient id="linearGradient3924" x1="-12.595" x2="-12.595" y1="1036.997" y2="1003.89" gradientUnits="userSpaceOnUse" xlink:href="#linearGradient3817"/><linearGradient id="linearGradient3934" x1="48.429" x2="48.429" y1="39.938" y2="13.929" gradientTransform="translate(-45,987.64789)" gradientUnits="userSpaceOnUse" xlink:href="#linearGradient3817"/><linearGradient id="linearGradient3944" x1="47.857" x2="47.857" y1="55.286" y2="29.125" gradientUnits="userSpaceOnUse" xlink:href="#linearGradient3817"/><linearGradient id="linearGradient3952" x1="-12.595" x2="-12.595" y1="1036.997" y2="1003.89" gradientUnits="userSpaceOnUse" xlink:href="#linearGradient3817"/><linearGradient id="linearGradient3954" x1="48.429" x2="48.429" y1="39.938" y2="13.929" gradientTransform="translate(-45,987.64789)" gradientUnits="userSpaceOnUse" xlink:href="#linearGradient3817"/><linearGradient id="linearGradient3956" x1="47.857" x2="47.857" y1="55.286" y2="29.125" gradientUnits="userSpaceOnUse" xlink:href="#linearGradient3817"/></defs><metadata id="metadata7"/><g id="layer1" transform="translate(0,-988.36218)"><g id="g3946" transform="matrix(1.0000087,0,0,1,44.478069,1.6615514)" style="opacity:.7"><path id="path3766-4" d="m -18.687533,991.09794 0,20.78126 -21.09375,0 -0.125,13.3125 21.21875,0 0,20.9375 12.875,0 0,-20.9375 21.09375,0 0,-13.3125 -21.09375,0 0,-20.78126 -12.875,0 z" style="fill:#f8f074;fill-opacity:1;stroke:#000;stroke-width:1.9999913;stroke-linecap:butt;stroke-miterlimit:4;stroke-opacity:1;stroke-dasharray:none;stroke-dashoffset:0"/><path id="path3766" d="m -18.687533,991.09794 0,20.78126 -21.09375,0 -0.125,13.3125 21.21875,0 0,20.9375 12.8750001,0 0,-20.9375 21.0937499,0 0,-13.3125 -21.0937499,0 0,-20.78126 -12.8750001,0 z" style="fill:url(#linearGradient3952);fill-opacity:1;stroke:#000;stroke-width:1.9999913;stroke-linecap:butt;stroke-miterlimit:4;stroke-opacity:1;stroke-dasharray:none;stroke-dashoffset:0"/><path id="path3926" d="m -2,999.50504 12.142857,0 -1,31.14286 L -1,1030.7908 z" style="fill:url(#linearGradient3954);fill-opacity:1;stroke:#000;stroke-width:1.9999913;stroke-opacity:1"/><path id="path3936" d="m 54,51.142857 c 0,3.313708 -2.686292,6 -6,6 -3.313708,0 -6,-2.686292 -6,-6 0,-3.313709 2.686292,-6 6,-6 3.313708,0 6,2.686291 6,6 z" transform="translate(-43.714286,987.50503)" style="fill:url(#linearGradient3956);fill-opacity:1;stroke:#000;stroke-width:1.9999913;stroke-opacity:1"/></g></g></svg>