<svg xmlns="http://www.w3.org/2000/svg" xmlns:svg="http://www.w3.org/2000/svg" xmlns:xlink="http://www.w3.org/1999/xlink" id="svg2" width="64" height="64" version="1.1"><defs id="defs4"><linearGradient id="linearGradient4192"><stop style="stop-color:#e0c03c;stop-opacity:1" id="stop4194" offset="0"/><stop style="stop-color:#d0980c;stop-opacity:1" id="stop4196" offset="1"/></linearGradient><linearGradient id="linearGradient3817"><stop style="stop-color:#00ff18;stop-opacity:1" id="stop3819" offset="0"/><stop style="stop-color:#218229;stop-opacity:1" id="stop3821" offset="1"/></linearGradient><linearGradient id="linearGradient3809"><stop style="stop-color:#7b1418;stop-opacity:1" id="stop3811" offset="0"/><stop style="stop-color:#7b1418;stop-opacity:1" id="stop3813" offset="1"/></linearGradient><linearGradient id="linearGradient3801"><stop style="stop-color:#000;stop-opacity:1" id="stop3803" offset="0"/><stop style="stop-color:#7b1418;stop-opacity:1" id="stop3805" offset="1"/></linearGradient><linearGradient id="linearGradient3773"><stop style="stop-color:#a64543;stop-opacity:1" id="stop3783" offset="0"/><stop style="stop-color:#de5d5a;stop-opacity:1" id="stop3777" offset="1"/></linearGradient><linearGradient id="linearGradient3882-5" x1="-12.462" x2="-12.446" y1="1044.794" y2="992.292" gradientUnits="userSpaceOnUse" xlink:href="#linearGradient3817-7"/><linearGradient id="linearGradient3817-7"><stop style="stop-color:#d8ac24;stop-opacity:1" id="stop3819-1" offset="0"/><stop style="stop-color:#f0e464;stop-opacity:1" id="stop3821-8" offset="1"/></linearGradient><linearGradient id="linearGradient3924" x1="-12.595" x2="-12.595" y1="1036.997" y2="1003.89" gradientUnits="userSpaceOnUse" xlink:href="#linearGradient3817"/><linearGradient id="linearGradient3934" x1="48.429" x2="48.429" y1="39.938" y2="13.929" gradientTransform="translate(-45,987.64789)" gradientUnits="userSpaceOnUse" xlink:href="#linearGradient3817"/><linearGradient id="linearGradient3944" x1="47.857" x2="47.857" y1="55.286" y2="29.125" gradientUnits="userSpaceOnUse" xlink:href="#linearGradient3817"/><linearGradient id="linearGradient3952" x1="-12.595" x2="-12.595" y1="1036.997" y2="1003.89" gradientUnits="userSpaceOnUse" xlink:href="#linearGradient3817"/><linearGradient id="linearGradient3954" x1="48.429" x2="48.429" y1="39.938" y2="13.929" gradientTransform="translate(-45,987.64789)" gradientUnits="userSpaceOnUse" xlink:href="#linearGradient3817"/><linearGradient id="linearGradient3956" x1="47.857" x2="47.857" y1="55.286" y2="29.125" gradientUnits="userSpaceOnUse" xlink:href="#linearGradient3817"/><linearGradient id="linearGradient3971" x1="48.429" x2="48.429" y1="39.938" y2="13.929" gradientTransform="matrix(1.0000087,0,0,1,-0.5223225,989.30944)" gradientUnits="userSpaceOnUse" xlink:href="#linearGradient3817"/><linearGradient id="linearGradient3983" x1="31.286" x2="31.286" y1="994.418" y2="1046.276" gradientTransform="translate(-81.571428,-22.285714)" gradientUnits="userSpaceOnUse" xlink:href="#linearGradient3817"/><linearGradient id="linearGradient4198" x1="100.714" x2="100.714" y1="1002.505" y2="1037.683" gradientUnits="userSpaceOnUse" xlink:href="#linearGradient3817-7"/><linearGradient id="linearGradient4714" x1="101.424" x2="101.152" y1="49.855" y2="14.427" gradientUnits="userSpaceOnUse" xlink:href="#linearGradient3817-7"/><linearGradient id="linearGradient3025" x1="101.424" x2="101.152" y1="49.855" y2="14.427" gradientTransform="translate(-68.857143,983.93361)" gradientUnits="userSpaceOnUse" xlink:href="#linearGradient3817-7"/></defs><metadata id="metadata7"/><g id="layer1" transform="translate(0,-988.36218)"><path style="fill:url(#linearGradient3025);fill-opacity:1;stroke:#000;stroke-width:2;stroke-opacity:1;opacity:.7" id="path4099-0" d="m 32.236607,993.80861 c -0.18528,3.6e-4 -8.037817,16.54709 -8.1875,16.65629 -0.149683,0.1092 -18.255586,2.5111 -18.3125,2.6875 -0.02251,0.07 2.178757,2.2146 4.6875,4.625 l -6,0 0,11.875 14,0 c -0.927305,5.2823 -2.608445,14.609 -2.5,14.6875 0.150104,0.1086 16.18972,-8.6559 16.375,-8.6563 0.18528,-3e-4 16.28782,8.703 16.4375,8.5938 0.10794,-0.079 -1.61368,-9.3409 -2.5625,-14.625 l 13.40625,0 0,-11.875 -5.53125,0 c 2.54099,-2.4598 4.77306,-4.6483 4.75,-4.7188 -0.05759,-0.1761 -18.19365,-2.5164 -18.34375,-2.625 -0.1501,-0.1086 -8.03347,-16.62535 -8.21875,-16.62499 z"/><flowRoot id="flowRoot3985-8" transform="matrix(0.7836709,0,0,0.63983787,26.004545,1021.5103)" xml:space="preserve" style="font-size:16px;font-style:normal;font-variant:normal;font-weight:400;font-stretch:normal;text-indent:0;text-align:start;text-decoration:none;line-height:125%;letter-spacing:0;word-spacing:0;text-transform:none;direction:ltr;block-progression:tb;writing-mode:lr-tb;text-anchor:start;baseline-shift:baseline;color:#000;fill:#000;fill-opacity:1;fill-rule:nonzero;stroke:none;stroke-width:1px;marker:none;visibility:visible;display:inline;overflow:visible;enable-background:accumulate;font-family:GillSans ExtraBold;-inkscape-font-specification:'GillSans ExtraBold,';opacity:.8"><flowRegion id="flowRegion3987-1"><rect id="rect3989-6" width="102.571" height="60.429" x="-24.286" y="-6.143" style="font-size:16px;font-style:normal;font-variant:normal;font-weight:400;font-stretch:normal;fill:#000;fill-opacity:1;font-family:GillSans ExtraBold;-inkscape-font-specification:'GillSans ExtraBold,'"/></flowRegion><flowPara id="flowPara3991-1">ADMIN</flowPara></flowRoot></g></svg>